<?xml version="1.0" encoding="utf-8" standalone="no"?>
<!DOCTYPE svg PUBLIC "-//W3C//DTD SVG 1.1//EN"
  "http://www.w3.org/Graphics/SVG/1.1/DTD/svg11.dtd">
<svg xmlns:xlink="http://www.w3.org/1999/xlink" width="122.4pt" height="122.4pt" viewBox="0 0 122.4 122.4" xmlns="http://www.w3.org/2000/svg" version="1.1">
 <metadata>
  <rdf:RDF xmlns:dc="http://purl.org/dc/elements/1.1/" xmlns:cc="http://creativecommons.org/ns#" xmlns:rdf="http://www.w3.org/1999/02/22-rdf-syntax-ns#">
   <cc:Work>
    <dc:type rdf:resource="http://purl.org/dc/dcmitype/StillImage"/>
    <dc:date>2026-03-04T10:19:19.836106</dc:date>
    <dc:format>image/svg+xml</dc:format>
    <dc:creator>
     <cc:Agent>
      <dc:title>Matplotlib v3.10.3, https://matplotlib.org/</dc:title>
     </cc:Agent>
    </dc:creator>
   </cc:Work>
  </rdf:RDF>
 </metadata>
 <defs>
  <style type="text/css">*{stroke-linejoin: round; stroke-linecap: butt}</style>
 </defs>
 <g id="figure_1">
  <g id="patch_1">
   <path d="M 0 122.4 
L 122.4 122.4 
L 122.4 0 
L 0 0 
z
" style="fill: #ffffff"/>
  </g>
  <g id="axes_1">
   <g id="patch_2">
    <path d="M 0 122.4 
L 122.4 122.4 
L 122.4 -0 
L 0 -0 
z
" style="fill: #1a1a1a"/>
   </g>
   <g id="matplotlib.axis_1"/>
   <g id="matplotlib.axis_2"/>
   <g id="line2d_1">
    <path d="M 5.563636 36.840414 
L 6.120557 39.708869 
L 7.234398 46.827088 
L 9.350696 62.204225 
L 11.578378 77.847167 
L 13.026372 86.474366 
L 14.251597 92.537457 
L 15.365438 97.043144 
L 16.479279 100.639018 
L 17.481736 103.162618 
L 18.484193 105.080211 
L 19.375266 106.330838 
L 20.266339 107.201672 
L 21.046028 107.6852 
L 21.825717 107.935731 
L 22.605405 107.976373 
L 23.496478 107.792227 
L 24.387551 107.388046 
L 25.390008 106.699531 
L 26.615233 105.561571 
L 27.951843 103.995225 
L 29.51122 101.79606 
L 31.293366 98.856621 
L 33.186896 95.295246 
L 35.303194 90.833059 
L 37.530876 85.62218 
L 39.869943 79.598209 
L 42.320393 72.672861 
L 44.882228 64.735028 
L 47.444062 56.060338 
L 50.228665 45.828671 
L 56.688943 21.583607 
L 57.802785 18.475064 
L 58.582473 16.853668 
L 59.250778 15.951879 
L 59.696314 15.654167 
L 60.141851 15.636193 
L 60.476003 15.825442 
L 60.92154 16.372739 
L 61.367076 17.283019 
L 61.923997 18.967397 
L 62.592301 21.830506 
L 63.37199 26.343258 
L 64.263063 32.941528 
L 65.488288 43.958237 
L 69.275348 79.614439 
L 70.500573 88.366304 
L 71.614414 94.672237 
L 72.616871 99.086489 
L 73.507944 102.113848 
L 74.399017 104.40194 
L 75.178706 105.87472 
L 75.958395 106.91706 
L 76.738084 107.583282 
L 77.406388 107.891399 
L 78.074693 107.984853 
L 78.854382 107.853428 
L 79.63407 107.493328 
L 80.525143 106.836515 
L 81.5276 105.825178 
L 82.752826 104.252233 
L 84.200819 101.986973 
L 85.871581 98.910314 
L 87.765111 94.910635 
L 89.881409 89.873024 
L 92.109091 83.97424 
L 94.448157 77.141651 
L 96.898608 69.270893 
L 99.349058 60.644731 
L 101.910893 50.815369 
L 105.141032 37.463523 
L 108.371171 24.302106 
L 109.707781 19.782136 
L 110.598853 17.468611 
L 111.267158 16.268264 
L 111.824079 15.71343 
L 112.269615 15.614422 
L 112.603767 15.766671 
L 113.049304 16.301744 
L 113.49484 17.247913 
L 114.051761 19.052433 
L 114.720066 22.176743 
L 115.499754 27.149214 
L 116.390827 34.429703 
L 116.836364 38.595828 
L 116.836364 38.595828 
" clip-path="url(#pe6b77d2eb8)" style="fill: none; stroke-dasharray: 14.8,6.4; stroke-dashoffset: 0; stroke: #4361ee; stroke-opacity: 0.6; stroke-width: 4"/>
   </g>
   <g id="line2d_2">
    <path d="M 5.563636 36.840414 
L 5.897789 35.850936 
L 6.009173 35.75862 
L 6.120557 35.819729 
L 6.343325 36.477247 
L 6.677477 38.923751 
L 7.123014 44.531611 
L 8.014087 56.748684 
L 8.348239 59.210506 
L 8.682391 60.148921 
L 8.90516 60.16773 
L 9.350696 59.8947 
L 9.573464 60.160861 
L 9.796233 61.000463 
L 10.130385 63.572101 
L 10.575921 69.208654 
L 11.466994 81.404294 
L 11.801147 83.782394 
L 12.023915 84.430357 
L 12.135299 84.506476 
L 12.358067 84.282363 
L 13.026372 83.013331 
L 13.137756 83.073589 
L 13.360524 83.659893 
L 13.694676 85.824153 
L 14.140213 90.702548 
L 14.919902 99.488444 
L 15.254054 101.209168 
L 15.476822 101.406414 
L 15.69959 100.940408 
L 16.145127 98.87246 
L 16.590663 97.140734 
L 16.813432 97.025086 
L 17.0362 97.593343 
L 17.370352 99.698279 
L 18.595577 109.833459 
L 18.818346 110.057911 
L 19.041114 109.55114 
L 19.375266 107.730695 
L 20.154955 103.009483 
L 20.377723 102.680742 
L 20.489107 102.781235 
L 20.711876 103.508092 
L 21.046028 105.690695 
L 21.937101 112.179375 
L 22.159869 112.595917 
L 22.271253 112.523413 
L 22.494021 111.832648 
L 22.828174 109.686597 
L 23.607862 103.825918 
L 23.830631 103.100821 
L 23.942015 103.002172 
L 24.053399 103.08459 
L 24.276167 103.76414 
L 24.610319 105.788119 
L 25.390008 110.76907 
L 25.612776 111.114935 
L 25.724161 111.011829 
L 25.946929 110.255138 
L 26.281081 107.960226 
L 27.172154 100.751182 
L 27.394922 100.069462 
L 27.506306 99.999561 
L 27.61769 100.109378 
L 27.840459 100.822095 
L 28.285995 103.556496 
L 28.842916 106.673638 
L 29.065684 107.015004 
L 29.177068 106.915006 
L 29.399836 106.161097 
L 29.733989 103.822459 
L 30.736446 95.418766 
L 30.959214 94.840614 
L 31.070598 94.824578 
L 31.293366 95.303624 
L 31.627518 96.996172 
L 32.295823 100.710644 
L 32.518591 101.080208 
L 32.629975 101.000652 
L 32.852744 100.286273 
L 33.186896 97.963282 
L 34.300737 88.467212 
L 34.523505 88.021925 
L 34.634889 88.06974 
L 34.857658 88.64949 
L 35.303194 91.047198 
L 35.748731 93.293749 
L 35.971499 93.70379 
L 36.082883 93.652008 
L 36.305651 92.994378 
L 36.639803 90.718505 
L 37.865029 80.18605 
L 38.087797 79.883167 
L 38.310565 80.264244 
L 38.644717 81.767582 
L 39.201638 84.593162 
L 39.424406 85.043233 
L 39.53579 85.020287 
L 39.758559 84.424355 
L 40.092711 82.209546 
L 41.42932 70.655142 
L 41.652088 70.490921 
L 41.874857 70.975362 
L 42.320393 73.100051 
L 42.76593 74.943564 
L 42.988698 75.114933 
L 43.211466 74.578037 
L 43.545618 72.42754 
L 44.213923 65.27318 
L 44.659459 61.228581 
L 44.993612 59.833256 
L 45.104996 59.729777 
L 45.21638 59.795882 
L 45.439148 60.36188 
L 46.330221 63.850475 
L 46.441605 63.875394 
L 46.664373 63.392567 
L 46.998526 61.30722 
L 47.555446 55.310038 
L 48.112367 49.607183 
L 48.446519 47.875453 
L 48.669287 47.619901 
L 48.892056 47.997492 
L 49.337592 49.824976 
L 49.671744 51.047696 
L 49.894513 51.29232 
L 50.005897 51.170883 
L 50.228665 50.381216 
L 50.562817 47.867687 
L 51.899427 34.759944 
L 52.122195 34.310607 
L 52.233579 34.342897 
L 52.456347 34.828995 
L 53.34742 37.750384 
L 53.458804 37.682763 
L 53.681572 37.014623 
L 54.015725 34.677496 
L 54.684029 27.112745 
L 55.24095 22.040759 
L 55.463718 21.151761 
L 55.686486 20.998429 
L 55.909255 21.481605 
L 56.354791 23.501724 
L 56.800328 25.090669 
L 56.911712 25.18335 
L 57.023096 25.111813 
L 57.245864 24.443214 
L 57.580016 22.194239 
L 58.805242 11.9135 
L 59.02801 11.753534 
L 59.250778 12.354341 
L 59.58493 14.372778 
L 60.364619 19.87739 
L 60.587387 20.539936 
L 60.698771 20.629778 
L 60.810156 20.558733 
L 61.032924 19.977599 
L 61.47846 17.710938 
L 61.923997 15.750925 
L 62.146765 15.56413 
L 62.369533 16.153597 
L 62.703686 18.588806 
L 63.149222 24.150319 
L 64.040295 35.735177 
L 64.374447 37.995898 
L 64.7086 38.979444 
L 65.376904 39.937829 
L 65.599672 40.932756 
L 65.933825 43.731043 
L 66.379361 49.9711 
L 67.604586 69.47861 
L 67.938739 71.875873 
L 68.272891 72.831276 
L 68.941196 73.536279 
L 69.163964 74.392588 
L 69.498116 76.868015 
L 69.943653 82.317238 
L 70.94611 95.4972 
L 71.280262 97.342473 
L 71.50303 97.616686 
L 71.725799 97.276604 
L 72.616871 94.889632 
L 72.728256 95.012186 
L 72.951024 95.762359 
L 73.285176 98.115623 
L 74.510401 109.193998 
L 74.73317 109.585329 
L 74.844554 109.494908 
L 75.067322 108.802311 
L 75.512858 106.084552 
L 76.069779 102.997979 
L 76.292547 102.653434 
L 76.403931 102.741614 
L 76.626699 103.440905 
L 76.960852 105.590926 
L 77.851925 112.142775 
L 78.074693 112.598885 
L 78.186077 112.545132 
L 78.408845 111.884442 
L 78.742998 109.750697 
L 79.63407 103.211796 
L 79.856839 102.734071 
L 79.968223 102.764406 
L 80.190991 103.342652 
L 80.525143 105.236459 
L 81.304832 110.073937 
L 81.5276 110.409296 
L 81.638984 110.30172 
L 81.861753 109.532154 
L 82.195905 107.192958 
L 83.198362 99.136866 
L 83.42113 98.682961 
L 83.532514 98.727181 
L 83.755283 99.31479 
L 84.200819 101.846914 
L 84.75774 104.824528 
L 84.980508 105.135311 
L 85.091892 105.021815 
L 85.31466 104.238962 
L 85.648812 101.836323 
L 86.651269 92.96811 
L 86.874038 92.246083 
L 86.985422 92.157966 
L 87.096806 92.24631 
L 87.319574 92.893543 
L 87.765111 95.339078 
L 88.210647 97.497729 
L 88.433415 97.824843 
L 88.544799 97.726544 
L 88.767568 96.974141 
L 89.10172 94.57665 
L 90.215561 84.513954 
L 90.438329 83.914619 
L 90.549713 83.886288 
L 90.772482 84.320812 
L 91.106634 85.856105 
L 91.663554 88.568304 
L 91.886323 88.923861 
L 91.997707 88.847873 
L 92.220475 88.142478 
L 92.554627 85.780185 
L 93.779853 74.561355 
L 94.002621 74.092929 
L 94.114005 74.123982 
L 94.336773 74.643932 
L 94.893694 77.302987 
L 95.227846 78.447421 
L 95.33923 78.562354 
L 95.450614 78.508103 
L 95.673382 77.851336 
L 96.007535 75.533175 
L 97.344144 63.142813 
L 97.566912 62.799224 
L 97.678296 62.882431 
L 97.901065 63.466079 
L 98.792138 66.70903 
L 98.903522 66.672522 
L 99.12629 66.059578 
L 99.460442 63.78618 
L 100.017363 57.5888 
L 100.574283 51.87749 
L 100.908436 50.193481 
L 101.131204 49.965933 
L 101.353972 50.353423 
L 102.356429 53.30845 
L 102.579197 52.742707 
L 102.91335 50.530065 
L 103.47027 44.251639 
L 104.138575 37.302593 
L 104.472727 35.838627 
L 104.695495 35.74602 
L 104.918264 36.22087 
L 105.697952 38.758171 
L 105.809337 38.780624 
L 106.032105 38.318566 
L 106.254873 37.13029 
L 106.70041 32.849606 
L 107.591482 23.049721 
L 107.925635 21.468023 
L 108.148403 21.330418 
L 108.371171 21.8128 
L 109.373628 25.171507 
L 109.596396 24.727455 
L 109.930549 22.780265 
L 110.487469 17.288385 
L 111.04439 12.505172 
L 111.267158 11.662858 
L 111.378542 11.538689 
L 111.489926 11.614575 
L 111.712695 12.329142 
L 112.046847 14.499044 
L 112.826536 20.211402 
L 113.049304 20.920109 
L 113.272072 21.001096 
L 113.49484 20.51183 
L 114.497297 17.088747 
L 114.608681 17.24911 
L 114.83145 18.186802 
L 115.165602 21.162853 
L 115.722523 29.178678 
L 116.502211 40.042169 
L 116.836364 42.629473 
L 116.836364 42.629473 
" clip-path="url(#pe6b77d2eb8)" style="fill: none; stroke: #f72585; stroke-opacity: 0.9; stroke-width: 2; stroke-linecap: square"/>
   </g>
  </g>
 </g>
 <defs>
  <clipPath id="pe6b77d2eb8">
   <rect x="0" y="-0" width="122.4" height="122.4"/>
  </clipPath>
 </defs>
</svg>
