<?xml version="1.0" encoding="utf-8" standalone="no"?>
<!DOCTYPE svg PUBLIC "-//W3C//DTD SVG 1.1//EN"
  "http://www.w3.org/Graphics/SVG/1.1/DTD/svg11.dtd">
<svg xmlns:xlink="http://www.w3.org/1999/xlink" width="122.4pt" height="122.4pt" viewBox="0 0 122.4 122.4" xmlns="http://www.w3.org/2000/svg" version="1.1">
 <metadata>
  <rdf:RDF xmlns:dc="http://purl.org/dc/elements/1.1/" xmlns:cc="http://creativecommons.org/ns#" xmlns:rdf="http://www.w3.org/1999/02/22-rdf-syntax-ns#">
   <cc:Work>
    <dc:type rdf:resource="http://purl.org/dc/dcmitype/StillImage"/>
    <dc:date>2026-03-04T10:19:19.626855</dc:date>
    <dc:format>image/svg+xml</dc:format>
    <dc:creator>
     <cc:Agent>
      <dc:title>Matplotlib v3.10.3, https://matplotlib.org/</dc:title>
     </cc:Agent>
    </dc:creator>
   </cc:Work>
  </rdf:RDF>
 </metadata>
 <defs>
  <style type="text/css">*{stroke-linejoin: round; stroke-linecap: butt}</style>
 </defs>
 <g id="figure_1">
  <g id="patch_1">
   <path d="M 0 122.4 
L 122.4 122.4 
L 122.4 0 
L 0 0 
z
" style="fill: #ffffff"/>
  </g>
  <g id="axes_1">
   <g id="patch_2">
    <path d="M 0 122.4 
L 122.4 122.4 
L 122.4 -0 
L 0 -0 
z
" style="fill: #1a1a1a"/>
   </g>
   <g id="matplotlib.axis_1"/>
   <g id="matplotlib.axis_2"/>
   <g id="line2d_1">
    <path d="M 5.563636 48.371061 
L 6.680085 48.630582 
L 7.796534 49.172661 
L 8.912983 50.000696 
L 10.029431 51.094009 
L 11.51803 52.883541 
L 16.355974 59.078259 
L 17.472423 60.035622 
L 18.588872 60.656166 
L 19.333171 60.865134 
L 20.07747 60.906843 
L 20.82177 60.784717 
L 21.938218 60.316013 
L 23.054667 59.550423 
L 24.543265 58.184482 
L 27.148313 55.333553 
L 29.75336 52.55005 
L 31.986257 50.517052 
L 33.847005 49.098054 
L 35.707753 47.915344 
L 37.568501 47.011592 
L 39.057099 46.583855 
L 40.173548 46.513895 
L 41.289997 46.729466 
L 42.034296 47.065244 
L 42.778595 47.577191 
L 43.522894 48.282784 
L 44.639343 49.734469 
L 45.755792 51.685819 
L 46.872241 54.145196 
L 47.98869 57.095185 
L 49.477288 61.712765 
L 51.338036 68.342145 
L 58.036728 93.345346 
L 59.525327 97.735555 
L 60.641776 100.482617 
L 61.758224 102.679508 
L 62.502524 103.801882 
L 63.246823 104.624397 
L 63.991122 105.124492 
L 64.735421 105.279913 
L 65.47972 105.0689 
L 66.224019 104.47121 
L 66.968319 103.468998 
L 67.712618 102.047394 
L 68.456917 100.196744 
L 69.573366 96.608548 
L 70.689815 92.063825 
L 71.806263 86.622049 
L 73.294862 78.16628 
L 75.527759 63.765472 
L 78.504956 44.368519 
L 79.993554 36.00127 
L 81.110003 30.764555 
L 82.226452 26.600824 
L 82.970751 24.470565 
L 83.71505 22.870774 
L 84.459349 21.797635 
L 85.203649 21.232794 
L 85.947948 21.146044 
L 86.692247 21.495279 
L 87.436546 22.229484 
L 88.180845 23.290817 
L 89.297294 25.358281 
L 90.785892 28.667121 
L 93.763089 35.476132 
L 95.251687 38.336234 
L 96.740286 40.645259 
L 98.228884 42.43448 
L 99.717483 43.837318 
L 104.183278 47.700759 
L 105.671876 49.468752 
L 107.160474 51.64228 
L 108.649073 54.204963 
L 111.25412 59.272263 
L 113.487017 63.478938 
L 114.603466 65.242036 
L 115.719915 66.63443 
L 116.464214 67.312725 
L 116.836364 67.568896 
L 116.836364 67.568896 
" clip-path="url(#p072d035040)" style="fill: none; stroke: #f72585; stroke-opacity: 0.6; stroke-width: 3; stroke-linecap: square"/>
   </g>
   <g id="line2d_2">
    <path d="M 5.563636 74.342729 
L 7.052235 67.256609 
L 8.168683 62.83249 
L 9.285132 59.280247 
L 10.401581 56.634163 
L 11.14588 55.364138 
L 11.890179 54.465763 
L 12.634479 53.908632 
L 13.378778 53.653698 
L 14.123077 53.655818 
L 14.867376 53.865393 
L 15.983825 54.456003 
L 20.07747 57.020803 
L 21.193919 57.288144 
L 22.310368 57.236648 
L 23.426817 56.847866 
L 24.543265 56.128634 
L 25.659714 55.106834 
L 27.148313 53.349012 
L 29.009061 50.703065 
L 34.219155 42.970395 
L 35.707753 41.197309 
L 37.196351 39.725116 
L 38.68495 38.527602 
L 40.917847 37.065404 
L 43.895044 35.117809 
L 45.383642 33.895612 
L 46.872241 32.427188 
L 48.732989 30.261386 
L 52.082335 25.878003 
L 54.315233 23.09384 
L 56.175981 21.114651 
L 57.664579 19.836862 
L 59.153177 18.880997 
L 60.269626 18.409056 
L 61.386075 18.183637 
L 62.502524 18.248487 
L 63.246823 18.479297 
L 63.991122 18.880576 
L 64.735421 19.470827 
L 65.47972 20.268603 
L 66.596169 21.892354 
L 67.712618 24.073187 
L 68.829067 26.847286 
L 69.945515 30.230407 
L 71.434114 35.672651 
L 72.922712 42.095758 
L 74.78346 51.255534 
L 77.388507 65.38078 
L 81.110003 85.593136 
L 82.970751 94.633109 
L 84.459349 100.992921 
L 85.947948 106.417078 
L 87.064396 109.802601 
L 88.180845 112.560603 
L 89.297294 114.659135 
L 90.041593 115.677616 
L 90.785892 116.382548 
L 91.530192 116.766651 
L 92.274491 116.823331 
L 93.01879 116.546762 
L 93.763089 115.933071 
L 94.507388 114.98017 
L 95.251687 113.688779 
L 96.368136 111.129008 
L 97.484585 107.855103 
L 98.601034 103.93046 
L 100.089632 97.853964 
L 102.32253 87.59527 
L 105.299726 73.963045 
L 106.788325 68.142626 
L 107.904773 64.511509 
L 109.021222 61.620509 
L 109.765521 60.129997 
L 110.509821 58.992455 
L 111.25412 58.199661 
L 111.998419 57.734125 
L 112.742718 57.570021 
L 113.487017 57.67426 
L 114.231317 58.008591 
L 115.347765 58.848573 
L 116.836364 60.366747 
L 116.836364 60.366747 
" clip-path="url(#p072d035040)" style="fill: none; stroke: #b5179e; stroke-opacity: 0.6; stroke-width: 3; stroke-linecap: square"/>
   </g>
   <g id="line2d_3">
    <path d="M 5.563636 90.330392 
L 7.052235 83.633066 
L 8.912983 74.187315 
L 13.378778 51.048966 
L 14.867376 44.704662 
L 15.983825 40.779564 
L 17.100274 37.671689 
L 17.844573 36.07594 
L 18.588872 34.861668 
L 19.333171 34.018323 
L 20.07747 33.526209 
L 20.82177 33.356842 
L 21.566069 33.475244 
L 22.310368 33.840891 
L 23.426817 34.756815 
L 24.915415 36.426598 
L 28.636911 40.929661 
L 30.125509 42.345612 
L 31.614108 43.452935 
L 33.474856 44.495548 
L 37.940651 46.764518 
L 39.429249 47.864992 
L 40.917847 49.268858 
L 42.406446 50.985267 
L 44.267194 53.484437 
L 47.61654 58.128882 
L 48.732989 59.388984 
L 49.849438 60.341462 
L 50.593737 60.760246 
L 51.338036 60.978508 
L 52.082335 60.976944 
L 52.826634 60.741456 
L 53.570933 60.263141 
L 54.315233 59.538922 
L 55.059532 58.57218 
L 56.175981 56.688439 
L 57.292429 54.335219 
L 58.781028 50.609367 
L 61.013925 44.271531 
L 63.991122 35.888963 
L 65.47972 32.306019 
L 66.596169 30.047362 
L 67.712618 28.216822 
L 68.829067 26.848905 
L 69.573366 26.203082 
L 70.317665 25.77326 
L 71.061964 25.559773 
L 71.806263 25.562553 
L 72.550562 25.780422 
L 73.294862 26.213206 
L 74.039161 26.861359 
L 75.15561 28.241131 
L 76.272058 30.119664 
L 77.388507 32.51203 
L 78.504956 35.434628 
L 79.621405 38.899253 
L 81.110003 44.362185 
L 82.598601 50.74531 
L 84.459349 59.834944 
L 87.064396 73.880866 
L 90.413743 91.812157 
L 92.274491 100.428748 
L 93.763089 106.118475 
L 94.879538 109.525904 
L 95.995987 112.109226 
L 96.740286 113.343812 
L 97.484585 114.172308 
L 98.228884 114.584876 
L 98.973183 114.574498 
L 99.717483 114.137073 
L 100.461782 113.271573 
L 101.206081 111.980566 
L 101.95038 110.269374 
L 103.066829 106.936934 
L 104.183278 102.731813 
L 105.299726 97.728399 
L 106.788325 89.993211 
L 108.649073 79.06735 
L 113.487017 49.686624 
L 114.975616 42.042949 
L 116.464214 35.658529 
L 116.836364 34.282646 
L 116.836364 34.282646 
" clip-path="url(#p072d035040)" style="fill: none; stroke: #7209b7; stroke-opacity: 0.6; stroke-width: 3; stroke-linecap: square"/>
   </g>
   <g id="line2d_4">
    <path d="M 5.563636 83.377522 
L 7.052235 82.280427 
L 8.540833 80.902423 
L 10.029431 79.186824 
L 11.51803 77.079524 
L 13.006628 74.545235 
L 14.495227 71.586775 
L 16.355974 67.385082 
L 20.82177 56.873391 
L 21.938218 54.746852 
L 23.054667 53.066615 
L 23.798966 52.248926 
L 24.543265 51.705008 
L 25.287565 51.455644 
L 26.031864 51.5142 
L 26.776163 51.886387 
L 27.520462 52.570578 
L 28.264761 53.556522 
L 29.38121 55.562437 
L 30.497659 58.123069 
L 31.986257 62.207416 
L 34.219155 69.153671 
L 37.196351 78.357787 
L 38.68495 82.337259 
L 39.801399 84.867587 
L 40.917847 86.920878 
L 42.034296 88.427203 
L 42.778595 89.097385 
L 43.522894 89.482237 
L 44.267194 89.569231 
L 45.011493 89.349292 
L 45.755792 88.816537 
L 46.500091 87.969669 
L 47.24439 86.811541 
L 48.360839 84.508776 
L 49.477288 81.569746 
L 50.965886 76.780751 
L 52.454485 71.192052 
L 54.687382 61.840476 
L 60.641776 36.364427 
L 62.874673 27.989061 
L 64.735421 21.875249 
L 66.224019 17.710095 
L 67.340468 15.100073 
L 68.456917 12.999659 
L 69.573366 11.466973 
L 70.317665 10.784913 
L 71.061964 10.386919 
L 71.806263 10.280087 
L 72.550562 10.466709 
L 73.294862 10.944657 
L 74.039161 11.708039 
L 74.78346 12.746539 
L 75.899909 14.790317 
L 77.016358 17.365009 
L 78.504956 21.507978 
L 80.365704 27.585593 
L 82.598601 35.753437 
L 88.552995 58.086788 
L 90.413743 64.023246 
L 91.902341 68.056902 
L 93.01879 70.586732 
L 94.135239 72.651907 
L 95.251687 74.231725 
L 96.368136 75.320944 
L 97.112435 75.779247 
L 97.856735 76.030643 
L 98.601034 76.084563 
L 99.345333 75.953124 
L 100.089632 75.649928 
L 101.206081 74.906647 
L 102.32253 73.865878 
L 103.811128 72.111701 
L 105.671876 69.501138 
L 108.276923 65.403343 
L 112.742718 57.895714 
L 116.836364 50.870062 
L 116.836364 50.870062 
" clip-path="url(#p072d035040)" style="fill: none; stroke: #3a0ca3; stroke-opacity: 0.6; stroke-width: 3; stroke-linecap: square"/>
   </g>
   <g id="line2d_5">
    <path d="M 5.563636 88.173792 
L 7.424384 85.436416 
L 9.657282 82.556321 
L 17.472423 72.815728 
L 20.07747 69.17959 
L 22.310368 65.660323 
L 24.171116 62.327499 
L 26.404013 57.839553 
L 33.102706 43.892469 
L 34.963454 40.801531 
L 36.824202 38.1812 
L 39.429249 34.981037 
L 41.662147 32.157071 
L 43.150745 29.968526 
L 44.639343 27.404495 
L 46.127942 24.419209 
L 47.98869 20.157029 
L 52.082335 10.363193 
L 53.198784 8.225406 
L 54.315233 6.619812 
L 55.059532 5.926337 
L 55.803831 5.587461 
L 56.54813 5.643141 
L 57.292429 6.126876 
L 58.036728 7.064428 
L 58.781028 8.472165 
L 59.525327 10.356529 
L 60.641776 14.066118 
L 61.758224 18.779141 
L 62.874673 24.385817 
L 64.363272 32.977347 
L 66.968319 49.725963 
L 69.573366 66.22422 
L 71.061964 74.541612 
L 72.550562 81.606349 
L 73.667011 85.956855 
L 74.78346 89.454613 
L 75.899909 92.110207 
L 76.644208 93.435548 
L 77.388507 94.43034 
L 78.132806 95.122151 
L 78.877106 95.541883 
L 79.621405 95.723167 
L 80.365704 95.700189 
L 81.482153 95.3553 
L 82.598601 94.729105 
L 84.0872 93.600699 
L 85.947948 91.891991 
L 87.808696 89.91675 
L 89.669444 87.590716 
L 91.158042 85.37197 
L 92.64664 82.762379 
L 94.135239 79.746454 
L 95.995987 75.496783 
L 100.833931 64.121883 
L 102.32253 61.300422 
L 103.438978 59.561476 
L 104.555427 58.169905 
L 105.671876 57.118752 
L 106.788325 56.377549 
L 107.904773 55.897813 
L 109.393372 55.564641 
L 111.25412 55.449186 
L 115.347765 55.545312 
L 116.836364 55.594874 
L 116.836364 55.594874 
" clip-path="url(#p072d035040)" style="fill: none; stroke: #4361ee; stroke-opacity: 0.6; stroke-width: 3; stroke-linecap: square"/>
   </g>
  </g>
 </g>
 <defs>
  <clipPath id="p072d035040">
   <rect x="0" y="-0" width="122.4" height="122.4"/>
  </clipPath>
 </defs>
</svg>
