<?xml version="1.0" encoding="utf-8" standalone="no"?>
<!DOCTYPE svg PUBLIC "-//W3C//DTD SVG 1.1//EN"
  "http://www.w3.org/Graphics/SVG/1.1/DTD/svg11.dtd">
<svg xmlns:xlink="http://www.w3.org/1999/xlink" width="122.4pt" height="122.4pt" viewBox="0 0 122.4 122.4" xmlns="http://www.w3.org/2000/svg" version="1.1">
 <metadata>
  <rdf:RDF xmlns:dc="http://purl.org/dc/elements/1.1/" xmlns:cc="http://creativecommons.org/ns#" xmlns:rdf="http://www.w3.org/1999/02/22-rdf-syntax-ns#">
   <cc:Work>
    <dc:type rdf:resource="http://purl.org/dc/dcmitype/StillImage"/>
    <dc:date>2026-03-04T17:42:17.021284</dc:date>
    <dc:format>image/svg+xml</dc:format>
    <dc:creator>
     <cc:Agent>
      <dc:title>Matplotlib v3.10.3, https://matplotlib.org/</dc:title>
     </cc:Agent>
    </dc:creator>
   </cc:Work>
  </rdf:RDF>
 </metadata>
 <defs>
  <style type="text/css">*{stroke-linejoin: round; stroke-linecap: butt}</style>
 </defs>
 <g id="figure_1">
  <g id="patch_1">
   <path d="M 0 122.4 
L 122.4 122.4 
L 122.4 0 
L 0 0 
z
" style="fill: #ffffff"/>
  </g>
  <g id="axes_1">
   <g id="patch_2">
    <path d="M 0 122.4 
L 122.4 122.4 
L 122.4 -0 
L 0 -0 
z
" style="fill: #1a1a1a"/>
   </g>
   <g id="matplotlib.axis_1"/>
   <g id="matplotlib.axis_2"/>
   <g id="line2d_1">
    <path d="M 5.563636 16.045901 
L 7.347568 15.864221 
L 9.800474 15.332402 
L 12.253379 14.848213 
L 13.591328 14.827583 
L 14.706285 15.06758 
L 15.598251 15.488707 
L 16.490217 16.155289 
L 17.382183 17.095539 
L 18.274148 18.323376 
L 19.389105 20.254992 
L 20.727054 23.088458 
L 22.510986 27.487636 
L 27.86278 41.135615 
L 30.98466 48.129605 
L 34.10654 55.289497 
L 39.681326 68.542126 
L 40.796283 70.375056 
L 41.688249 71.409853 
L 42.357224 71.900016 
L 43.026198 72.129861 
L 43.695172 72.093638 
L 44.364146 71.792144 
L 45.033121 71.232531 
L 45.925087 70.105915 
L 46.817052 68.579467 
L 47.932009 66.175776 
L 49.269958 62.682198 
L 50.830898 57.959487 
L 53.283804 49.700998 
L 56.628676 38.438865 
L 58.412607 33.162032 
L 59.973547 29.196871 
L 61.311496 26.32886 
L 62.649444 23.949008 
L 63.987393 22.025069 
L 65.325342 20.494236 
L 66.886282 19.079907 
L 69.339187 17.243721 
L 72.015085 15.174275 
L 78.035854 10.289814 
L 79.150811 9.747779 
L 80.042776 9.505458 
L 80.934742 9.476505 
L 81.826708 9.701448 
L 82.718674 10.217454 
L 83.610639 11.053584 
L 84.502605 12.225937 
L 85.394571 13.734045 
L 86.509528 16.061002 
L 87.847477 19.397359 
L 89.8544 25.110549 
L 94.091237 37.324177 
L 96.767134 44.168599 
L 101.449954 55.955644 
L 105.686792 66.887244 
L 107.02474 69.629104 
L 108.139698 71.367395 
L 109.031663 72.329705 
L 109.700638 72.781034 
L 110.369612 72.993966 
L 111.038586 72.968231 
L 111.707561 72.708123 
L 112.376535 72.221468 
L 113.268501 71.238004 
L 114.160466 69.8981 
L 115.275424 67.76747 
L 116.613372 64.623243 
L 116.836364 64.044211 
L 116.836364 64.044211 
" clip-path="url(#pe2cc848a15)" style="fill: none; stroke: #4cc9f0; stroke-opacity: 0.8; stroke-width: 4; stroke-linecap: square"/>
   </g>
   <g id="line2d_2">
    <path d="M 5.563636 17.244397 
L 7.347568 19.748981 
L 8.685516 21.266396 
L 10.023465 22.44829 
L 11.361414 23.333803 
L 13.145345 24.214889 
L 15.37526 25.314369 
L 16.713208 26.263485 
L 17.828165 27.338544 
L 18.943123 28.708795 
L 20.281071 30.725243 
L 22.065003 33.879739 
L 26.30184 41.595653 
L 28.308763 44.698226 
L 33.660557 52.614351 
L 35.444489 55.899714 
L 39.904318 64.45839 
L 41.019275 65.950658 
L 41.911241 66.759688 
L 42.580215 67.109981 
L 43.249189 67.226903 
L 43.918164 67.105715 
L 44.587138 66.748068 
L 45.256112 66.161077 
L 46.148078 65.041664 
L 47.040044 63.569372 
L 48.155001 61.291687 
L 49.49295 58.017552 
L 51.05389 53.612153 
L 53.283804 46.60882 
L 57.966624 31.712847 
L 59.973547 26.122049 
L 61.757479 21.751322 
L 63.318419 18.432188 
L 64.879359 15.636746 
L 66.217307 13.713431 
L 67.332265 12.485399 
L 68.22423 11.768162 
L 69.116196 11.294838 
L 70.008162 11.062986 
L 70.900128 11.0582 
L 71.792093 11.254319 
L 72.90705 11.727135 
L 74.467991 12.672489 
L 77.812862 15.073693 
L 80.488759 17.157063 
L 81.826708 18.441467 
L 83.164657 20.049976 
L 84.502605 22.081875 
L 85.840554 24.571641 
L 87.401494 27.983224 
L 90.746365 36.085734 
L 92.753288 40.61884 
L 94.53722 44.129264 
L 96.544143 47.570638 
L 100.78098 54.628644 
L 103.233886 59.342608 
L 105.686792 64.01551 
L 107.02474 66.101813 
L 107.916706 67.169236 
L 108.808672 67.918789 
L 109.477646 68.252003 
L 110.146621 68.380236 
L 110.815595 68.301411 
L 111.484569 68.017985 
L 112.376535 67.332865 
L 113.268501 66.316256 
L 114.383458 64.617797 
L 115.498415 62.492134 
L 116.836364 59.451733 
L 116.836364 59.451733 
" clip-path="url(#pe2cc848a15)" style="fill: none; stroke: #4361ee; stroke-opacity: 0.8; stroke-width: 4; stroke-linecap: square"/>
   </g>
   <g id="line2d_3">
    <path d="M 5.563636 30.845515 
L 6.455602 31.379782 
L 7.347568 31.699841 
L 8.239534 31.825882 
L 9.354491 31.747652 
L 10.692439 31.381187 
L 12.699362 30.516276 
L 14.706285 29.712574 
L 15.821242 29.499347 
L 16.713208 29.526269 
L 17.605174 29.764699 
L 18.49714 30.231568 
L 19.389105 30.926172 
L 20.504063 32.084863 
L 21.842011 33.807007 
L 24.7409 38.047375 
L 26.970814 41.109495 
L 29.42372 44.065567 
L 32.099617 47.321641 
L 33.660557 49.570468 
L 35.221498 52.195174 
L 38.120386 57.668737 
L 39.681326 60.350908 
L 40.796283 61.843705 
L 41.688249 62.674295 
L 42.357224 63.048891 
L 43.026198 63.193503 
L 43.695172 63.10032 
L 44.364146 62.767714 
L 45.033121 62.200026 
L 45.925087 61.092844 
L 46.817052 59.612109 
L 47.932009 57.2864 
L 49.269958 53.884145 
L 50.830898 49.198082 
L 52.61483 43.068305 
L 54.844744 34.526633 
L 60.41953 12.487531 
L 61.088504 10.786477 
L 61.757479 9.677377 
L 62.203461 9.310044 
L 62.649444 9.247482 
L 63.095427 9.475337 
L 63.54141 9.963106 
L 64.210384 11.08924 
L 65.10235 13.079694 
L 68.447222 21.066367 
L 69.562179 23.090461 
L 70.677136 24.666721 
L 71.569102 25.60934 
L 72.461068 26.286304 
L 73.353033 26.722515 
L 74.244999 26.948421 
L 75.359956 26.987214 
L 76.697905 26.770546 
L 79.150811 26.046027 
L 80.711751 25.705035 
L 81.826708 25.687906 
L 82.718674 25.87829 
L 83.610639 26.289902 
L 84.502605 26.945976 
L 85.394571 27.853216 
L 86.509528 29.321166 
L 87.847477 31.487334 
L 90.077391 35.638461 
L 92.753288 40.521098 
L 94.53722 43.333257 
L 96.767134 46.401462 
L 99.666023 50.368678 
L 101.449954 53.197041 
L 103.90286 57.572337 
L 105.909783 61.025019 
L 107.02474 62.599396 
L 107.916706 63.572186 
L 108.808672 64.23495 
L 109.477646 64.507529 
L 110.146621 64.578361 
L 110.815595 64.444787 
L 111.484569 64.108623 
L 112.376535 63.355064 
L 113.268501 62.270363 
L 114.383458 60.483731 
L 115.498415 58.261297 
L 116.836364 55.083468 
L 116.836364 55.083468 
" clip-path="url(#pe2cc848a15)" style="fill: none; stroke: #3a0ca3; stroke-opacity: 0.8; stroke-width: 4; stroke-linecap: square"/>
   </g>
   <g id="line2d_4">
    <path d="M 5.563636 29.645901 
L 6.678594 29.49155 
L 7.793551 29.112812 
L 9.131499 28.400527 
L 10.692439 27.303271 
L 14.706285 24.329435 
L 15.821242 23.850207 
L 16.713208 23.688996 
L 17.605174 23.759469 
L 18.49714 24.07718 
L 19.389105 24.640245 
L 20.504063 25.657764 
L 21.842011 27.242488 
L 24.071926 30.343093 
L 26.970814 34.309813 
L 30.315686 38.387114 
L 32.322609 41.041753 
L 33.883549 43.501078 
L 35.444489 46.383867 
L 38.120386 51.933717 
L 39.904318 55.372126 
L 41.019275 57.086141 
L 41.911241 58.107534 
L 42.803206 58.767716 
L 43.472181 59.010863 
L 44.141155 59.035212 
L 44.810129 58.845021 
L 45.479104 58.449654 
L 46.371069 57.626667 
L 47.263035 56.500732 
L 48.377992 54.730237 
L 49.715941 52.179604 
L 51.499872 48.278827 
L 56.405684 37.204686 
L 57.966624 34.371359 
L 59.304573 32.407316 
L 60.41953 31.120148 
L 61.534487 30.146847 
L 62.649444 29.468106 
L 63.764402 29.051148 
L 65.10235 28.829138 
L 66.886282 28.822988 
L 69.339187 28.825793 
L 70.677136 28.598845 
L 72.015085 28.120851 
L 73.353033 27.3832 
L 74.913973 26.244689 
L 77.366879 24.119053 
L 79.596794 22.281559 
L 80.934742 21.473916 
L 81.826708 21.147468 
L 82.718674 21.038575 
L 83.610639 21.180309 
L 84.502605 21.59323 
L 85.394571 22.281748 
L 86.286537 23.232351 
L 87.401494 24.740566 
L 88.962434 27.280766 
L 93.868246 35.609809 
L 96.09816 38.720886 
L 99.443032 43.286821 
L 101.226963 46.164225 
L 103.233886 49.869633 
L 106.132775 55.273398 
L 107.470723 57.271127 
L 108.362689 58.280785 
L 109.254655 58.982927 
L 110.146621 59.354182 
L 110.815595 59.411069 
L 111.484569 59.280806 
L 112.376535 58.827817 
L 113.268501 58.076346 
L 114.160466 57.052963 
L 115.275424 55.433702 
L 116.613372 53.065901 
L 116.836364 52.632838 
L 116.836364 52.632838 
" clip-path="url(#pe2cc848a15)" style="fill: none; stroke-dasharray: 7.4,3.2; stroke-dashoffset: 0; stroke: #f72585; stroke-opacity: 0.8; stroke-width: 2"/>
   </g>
   <g id="line2d_5">
    <path d="M 5.563636 84.045901 
L 6.678594 83.89155 
L 7.793551 83.512812 
L 9.131499 82.800527 
L 10.692439 81.703271 
L 14.706285 78.729435 
L 15.821242 78.250207 
L 16.713208 78.088996 
L 17.605174 78.159469 
L 18.49714 78.47718 
L 19.389105 79.040245 
L 20.504063 80.057764 
L 21.842011 81.642488 
L 24.071926 84.743093 
L 26.970814 88.709813 
L 30.315686 92.787114 
L 32.322609 95.441753 
L 33.883549 97.901078 
L 35.444489 100.783867 
L 38.120386 106.333717 
L 39.904318 109.772126 
L 41.019275 111.486141 
L 41.911241 112.507534 
L 42.803206 113.167716 
L 43.472181 113.410863 
L 44.141155 113.435212 
L 44.810129 113.245021 
L 45.479104 112.849654 
L 46.371069 112.026667 
L 47.263035 110.900732 
L 48.377992 109.130237 
L 49.715941 106.579604 
L 51.499872 102.678827 
L 56.405684 91.604686 
L 57.966624 88.771359 
L 59.304573 86.807316 
L 60.41953 85.520148 
L 61.534487 84.546847 
L 62.649444 83.868106 
L 63.764402 83.451148 
L 65.10235 83.229138 
L 66.886282 83.222988 
L 69.339187 83.225793 
L 70.677136 82.998845 
L 72.015085 82.520851 
L 73.353033 81.7832 
L 74.913973 80.644689 
L 77.366879 78.519053 
L 79.596794 76.681559 
L 80.934742 75.873916 
L 81.826708 75.547468 
L 82.718674 75.438575 
L 83.610639 75.580309 
L 84.502605 75.99323 
L 85.394571 76.681748 
L 86.286537 77.632351 
L 87.401494 79.140566 
L 88.962434 81.680766 
L 93.868246 90.009809 
L 96.09816 93.120886 
L 99.443032 97.686821 
L 101.226963 100.564225 
L 103.233886 104.269633 
L 106.132775 109.673398 
L 107.470723 111.671127 
L 108.362689 112.680785 
L 109.254655 113.382927 
L 110.146621 113.754182 
L 110.815595 113.811069 
L 111.484569 113.680806 
L 112.376535 113.227817 
L 113.268501 112.476346 
L 114.160466 111.452963 
L 115.275424 109.833702 
L 116.613372 107.465901 
L 116.836364 107.032838 
L 116.836364 107.032838 
" clip-path="url(#pe2cc848a15)" style="fill: none; stroke-dasharray: 7.4,3.2; stroke-dashoffset: 0; stroke: #f72585; stroke-opacity: 0.8; stroke-width: 2"/>
   </g>
   <g id="LineCollection_1">
    <path d="M 5.563636 33.725901 
L 5.563636 25.565901 
" clip-path="url(#pe2cc848a15)" style="fill: none; stroke: #f72585; stroke-width: 1.5"/>
    <path d="M 27.86278 39.506499 
L 27.86278 31.346499 
" clip-path="url(#pe2cc848a15)" style="fill: none; stroke: #f72585; stroke-width: 1.5"/>
    <path d="M 50.161924 55.32795 
L 50.161924 47.16795 
" clip-path="url(#pe2cc848a15)" style="fill: none; stroke: #f72585; stroke-width: 1.5"/>
    <path d="M 72.461068 31.98281 
L 72.461068 23.82281 
" clip-path="url(#pe2cc848a15)" style="fill: none; stroke: #f72585; stroke-width: 1.5"/>
    <path d="M 94.760211 40.982111 
L 94.760211 32.822111 
" clip-path="url(#pe2cc848a15)" style="fill: none; stroke: #f72585; stroke-width: 1.5"/>
   </g>
   <g id="LineCollection_2">
    <path d="M 5.563636 89.485901 
L 5.563636 78.605901 
" clip-path="url(#pe2cc848a15)" style="fill: none; stroke: #f72585; stroke-width: 1.5"/>
    <path d="M 27.86278 95.266499 
L 27.86278 84.386499 
" clip-path="url(#pe2cc848a15)" style="fill: none; stroke: #f72585; stroke-width: 1.5"/>
    <path d="M 50.161924 111.08795 
L 50.161924 100.20795 
" clip-path="url(#pe2cc848a15)" style="fill: none; stroke: #f72585; stroke-width: 1.5"/>
    <path d="M 72.461068 87.74281 
L 72.461068 76.86281 
" clip-path="url(#pe2cc848a15)" style="fill: none; stroke: #f72585; stroke-width: 1.5"/>
    <path d="M 94.760211 96.742111 
L 94.760211 85.862111 
" clip-path="url(#pe2cc848a15)" style="fill: none; stroke: #f72585; stroke-width: 1.5"/>
   </g>
   <g id="line2d_6">
    <defs>
     <path id="m1a68da8f02" d="M 0 3 
C 0.795609 3 1.55874 2.683901 2.12132 2.12132 
C 2.683901 1.55874 3 0.795609 3 0 
C 3 -0.795609 2.683901 -1.55874 2.12132 -2.12132 
C 1.55874 -2.683901 0.795609 -3 0 -3 
C -0.795609 -3 -1.55874 -2.683901 -2.12132 -2.12132 
C -2.683901 -1.55874 -3 -0.795609 -3 0 
C -3 0.795609 -2.683901 1.55874 -2.12132 2.12132 
C -1.55874 2.683901 -0.795609 3 0 3 
z
" style="stroke: #f72585"/>
    </defs>
    <g clip-path="url(#pe2cc848a15)">
     <use xlink:href="#m1a68da8f02" x="5.563636" y="29.645901" style="fill: #f72585; stroke: #f72585"/>
     <use xlink:href="#m1a68da8f02" x="27.86278" y="35.426499" style="fill: #f72585; stroke: #f72585"/>
     <use xlink:href="#m1a68da8f02" x="50.161924" y="51.24795" style="fill: #f72585; stroke: #f72585"/>
     <use xlink:href="#m1a68da8f02" x="72.461068" y="27.90281" style="fill: #f72585; stroke: #f72585"/>
     <use xlink:href="#m1a68da8f02" x="94.760211" y="36.902111" style="fill: #f72585; stroke: #f72585"/>
    </g>
   </g>
   <g id="line2d_7">
    <g clip-path="url(#pe2cc848a15)">
     <use xlink:href="#m1a68da8f02" x="5.563636" y="84.045901" style="fill: #f72585; stroke: #f72585"/>
     <use xlink:href="#m1a68da8f02" x="27.86278" y="89.826499" style="fill: #f72585; stroke: #f72585"/>
     <use xlink:href="#m1a68da8f02" x="50.161924" y="105.64795" style="fill: #f72585; stroke: #f72585"/>
     <use xlink:href="#m1a68da8f02" x="72.461068" y="82.30281" style="fill: #f72585; stroke: #f72585"/>
     <use xlink:href="#m1a68da8f02" x="94.760211" y="91.302111" style="fill: #f72585; stroke: #f72585"/>
    </g>
   </g>
  </g>
 </g>
 <defs>
  <clipPath id="pe2cc848a15">
   <rect x="0" y="-0" width="122.4" height="122.4"/>
  </clipPath>
 </defs>
</svg>
