<?xml version="1.0" encoding="utf-8" standalone="no"?>
<!DOCTYPE svg PUBLIC "-//W3C//DTD SVG 1.1//EN"
  "http://www.w3.org/Graphics/SVG/1.1/DTD/svg11.dtd">
<svg xmlns:xlink="http://www.w3.org/1999/xlink" width="122.4pt" height="122.4pt" viewBox="0 0 122.4 122.4" xmlns="http://www.w3.org/2000/svg" version="1.1">
 <metadata>
  <rdf:RDF xmlns:dc="http://purl.org/dc/elements/1.1/" xmlns:cc="http://creativecommons.org/ns#" xmlns:rdf="http://www.w3.org/1999/02/22-rdf-syntax-ns#">
   <cc:Work>
    <dc:type rdf:resource="http://purl.org/dc/dcmitype/StillImage"/>
    <dc:date>2026-03-04T10:19:19.546237</dc:date>
    <dc:format>image/svg+xml</dc:format>
    <dc:creator>
     <cc:Agent>
      <dc:title>Matplotlib v3.10.3, https://matplotlib.org/</dc:title>
     </cc:Agent>
    </dc:creator>
   </cc:Work>
  </rdf:RDF>
 </metadata>
 <defs>
  <style type="text/css">*{stroke-linejoin: round; stroke-linecap: butt}</style>
 </defs>
 <g id="figure_1">
  <g id="patch_1">
   <path d="M 0 122.4 
L 122.4 122.4 
L 122.4 0 
L 0 0 
z
" style="fill: #ffffff"/>
  </g>
  <g id="axes_1">
   <g id="patch_2">
    <path d="M 0 122.4 
L 122.4 122.4 
L 122.4 -0 
L 0 -0 
z
" style="fill: #1a1a1a"/>
   </g>
   <g id="matplotlib.axis_1"/>
   <g id="matplotlib.axis_2"/>
   <g id="line2d_1">
    <path d="M 5.563636 27.807827 
L 6.455602 27.950768 
L 7.347568 28.378675 
L 8.239534 29.088797 
L 9.131499 30.076576 
L 10.246457 31.691923 
L 11.361414 33.714862 
L 12.699362 36.651563 
L 14.260302 40.725344 
L 16.044234 46.135978 
L 18.051157 53.018129 
L 20.727054 63.126855 
L 28.754746 94.184192 
L 30.761669 100.785438 
L 32.5456 105.884032 
L 34.10654 109.643136 
L 35.444489 112.284061 
L 36.559446 114.045392 
L 37.674403 115.388168 
L 38.566369 116.151834 
L 39.458335 116.634016 
L 40.350301 116.831618 
L 41.242266 116.743371 
L 42.134232 116.369841 
L 43.026198 115.713428 
L 43.918164 114.778347 
L 45.033121 113.226936 
L 46.148078 111.265181 
L 47.486027 108.397409 
L 48.823975 105.0087 
L 50.384915 100.462469 
L 52.168847 94.595535 
L 54.398761 86.477627 
L 57.743633 73.34654 
L 62.203461 55.902339 
L 64.433376 47.994675 
L 66.217307 42.355663 
L 67.778247 38.047522 
L 69.339187 34.412757 
L 70.677136 31.887716 
L 71.792093 30.228246 
L 72.90705 28.991051 
L 73.799016 28.313821 
L 74.690982 27.919224 
L 75.582948 27.809794 
L 76.474913 27.986234 
L 77.366879 28.447411 
L 78.258845 29.190363 
L 79.150811 30.210319 
L 80.265768 31.864656 
L 81.380725 33.924853 
L 82.718674 36.90345 
L 84.279614 41.021474 
L 86.063545 46.475501 
L 88.070468 53.396013 
L 90.746365 63.53666 
L 98.551066 93.770374 
L 100.557989 100.419665 
L 102.34192 105.570986 
L 103.90286 109.382864 
L 105.240809 112.073134 
L 106.355766 113.877945 
L 107.470723 115.265882 
L 108.362689 116.066581 
L 109.254655 116.586344 
L 110.146621 116.821833 
L 111.038586 116.771536 
L 111.930552 116.435775 
L 112.822518 115.816708 
L 113.714484 114.91831 
L 114.829441 113.41146 
L 115.944398 111.492416 
L 116.836364 109.673203 
L 116.836364 109.673203 
" clip-path="url(#pe786119be0)" style="fill: none; stroke: #4cc9f0; stroke-opacity: 0.8; stroke-width: 4; stroke-linecap: square"/>
   </g>
   <g id="line2d_2">
    <path d="M 5.563636 31.730657 
L 11.361414 61.046293 
L 13.145345 68.552257 
L 14.929277 75.103156 
L 16.713208 80.748968 
L 18.274148 85.010374 
L 19.835088 88.700128 
L 21.396028 91.874453 
L 22.956968 94.583916 
L 24.517909 96.872404 
L 26.078849 98.777027 
L 27.639789 100.328441 
L 29.200729 101.551339 
L 30.761669 102.464947 
L 32.099617 103.012762 
L 33.437566 103.350051 
L 34.775515 103.480607 
L 36.113463 103.405896 
L 37.451412 103.125079 
L 38.789361 102.635001 
L 40.127309 101.930126 
L 41.465258 101.002436 
L 43.026198 99.624151 
L 44.587138 97.906178 
L 46.148078 95.821017 
L 47.709018 93.334962 
L 49.269958 90.407664 
L 50.830898 86.991967 
L 52.391838 83.034368 
L 53.952778 78.476774 
L 55.513718 73.26072 
L 57.29765 66.429801 
L 59.081581 58.641351 
L 61.088504 48.825793 
L 66.217307 22.933218 
L 67.332265 18.788197 
L 68.22423 16.360976 
L 68.893205 15.159067 
L 69.339187 14.678604 
L 69.78517 14.464905 
L 70.231153 14.521644 
L 70.677136 14.847842 
L 71.123119 15.437917 
L 71.792093 16.794997 
L 72.461068 18.673217 
L 73.353033 21.875705 
L 74.467991 26.751157 
L 76.251922 35.747169 
L 80.265768 56.377402 
L 82.272691 65.357923 
L 84.056622 72.327468 
L 85.840554 78.363795 
L 87.401494 82.935968 
L 88.962434 86.906775 
L 90.523374 90.334379 
L 92.084314 93.272413 
L 93.645254 95.768192 
L 95.206194 97.862219 
L 96.767134 99.58835 
L 98.328074 100.974224 
L 99.889014 102.041764 
L 101.449954 102.807655 
L 102.787903 103.23315 
L 104.125852 103.450598 
L 105.4638 103.462443 
L 106.801749 103.268817 
L 108.139698 102.867546 
L 109.477646 102.254109 
L 110.815595 101.421551 
L 112.376535 100.160436 
L 113.937475 98.568146 
L 115.498415 96.619302 
L 116.836364 94.641443 
L 116.836364 94.641443 
" clip-path="url(#pe786119be0)" style="fill: none; stroke: #4361ee; stroke-opacity: 0.8; stroke-width: 4; stroke-linecap: square"/>
   </g>
   <g id="line2d_3">
    <path d="M 5.563636 76.248828 
L 6.901585 79.301721 
L 8.462525 82.277257 
L 10.023465 84.743745 
L 11.584405 86.797876 
L 13.145345 88.512287 
L 14.929277 90.125629 
L 16.713208 91.428473 
L 18.49714 92.466429 
L 20.504063 93.359046 
L 22.510986 93.993083 
L 24.517909 94.391608 
L 26.524831 94.568569 
L 28.531754 94.530024 
L 30.538677 94.274659 
L 32.5456 93.793681 
L 34.552523 93.070054 
L 36.336455 92.201714 
L 38.120386 91.093784 
L 39.904318 89.709609 
L 41.465258 88.233247 
L 43.026198 86.463603 
L 44.587138 84.342914 
L 46.148078 81.794852 
L 47.486027 79.194379 
L 48.823975 76.121637 
L 50.161924 72.467858 
L 51.499872 68.092588 
L 52.837821 62.817042 
L 53.952778 57.576639 
L 55.067735 51.421608 
L 56.405684 42.664872 
L 57.966624 30.598414 
L 60.196539 12.789617 
L 60.865513 8.822766 
L 61.311496 6.952865 
L 61.757479 5.841762 
L 61.98047 5.595993 
L 62.203461 5.563636 
L 62.426453 5.745262 
L 62.872436 6.734142 
L 63.318419 8.496107 
L 63.987393 12.338434 
L 64.879359 18.963391 
L 68.22423 45.300882 
L 69.562179 53.622919 
L 70.900128 60.509208 
L 72.238076 66.186158 
L 73.576025 70.883442 
L 74.913973 74.795449 
L 76.251922 78.076679 
L 77.589871 80.847194 
L 79.150811 83.556542 
L 80.711751 85.808266 
L 82.272691 87.686183 
L 83.833631 89.253538 
L 85.617562 90.725719 
L 87.401494 91.908878 
L 89.185425 92.843022 
L 91.192348 93.632579 
L 93.199271 94.173641 
L 95.206194 94.485563 
L 97.213117 94.579147 
L 99.22004 94.457584 
L 101.226963 94.116725 
L 103.233886 93.544727 
L 105.240809 92.721017 
L 107.02474 91.752598 
L 108.808672 90.530054 
L 110.592603 89.011576 
L 112.153543 87.396135 
L 113.714484 85.460763 
L 115.275424 83.139213 
L 116.613372 80.776044 
L 116.836364 80.343561 
L 116.836364 80.343561 
" clip-path="url(#pe786119be0)" style="fill: none; stroke: #3a0ca3; stroke-opacity: 0.8; stroke-width: 4; stroke-linecap: square"/>
   </g>
   <g id="LineCollection_1">
    <path d="M 27.818182 58.967987 
L 27.818182 41.162181 
" clip-path="url(#pe786119be0)" style="fill: none; stroke: #f72585; stroke-width: 1.5"/>
    <path d="M 61.2 103.482501 
L 61.2 85.676695 
" clip-path="url(#pe786119be0)" style="fill: none; stroke: #f72585; stroke-width: 1.5"/>
    <path d="M 94.581818 67.87089 
L 94.581818 50.065084 
" clip-path="url(#pe786119be0)" style="fill: none; stroke: #f72585; stroke-width: 1.5"/>
   </g>
   <g id="line2d_4">
    <defs>
     <path id="m24a2f31e2e" d="M 0 3 
C 0.795609 3 1.55874 2.683901 2.12132 2.12132 
C 2.683901 1.55874 3 0.795609 3 0 
C 3 -0.795609 2.683901 -1.55874 2.12132 -2.12132 
C 1.55874 -2.683901 0.795609 -3 0 -3 
C -0.795609 -3 -1.55874 -2.683901 -2.12132 -2.12132 
C -2.683901 -1.55874 -3 -0.795609 -3 0 
C -3 0.795609 -2.683901 1.55874 -2.12132 2.12132 
C -1.55874 2.683901 -0.795609 3 0 3 
z
" style="stroke: #f72585"/>
    </defs>
    <g clip-path="url(#pe786119be0)">
     <use xlink:href="#m24a2f31e2e" x="27.818182" y="50.065084" style="fill: #f72585; stroke: #f72585"/>
     <use xlink:href="#m24a2f31e2e" x="61.2" y="94.579598" style="fill: #f72585; stroke: #f72585"/>
     <use xlink:href="#m24a2f31e2e" x="94.581818" y="58.967987" style="fill: #f72585; stroke: #f72585"/>
    </g>
   </g>
  </g>
 </g>
 <defs>
  <clipPath id="pe786119be0">
   <rect x="0" y="-0" width="122.4" height="122.4"/>
  </clipPath>
 </defs>
</svg>
